<svg width="19" height="16" viewBox="0 0 19 16" fill="none" xmlns="http://www.w3.org/2000/svg">
<path d="M18.498 7.99805C18.498 8.73633 17.9238 9.31055 17.2266 9.31055H4.63477L8.94141 13.6582C9.47461 14.1504 9.47461 15.0117 8.94141 15.5039C8.69531 15.75 8.36719 15.873 8.03906 15.873C7.66992 15.873 7.3418 15.75 7.0957 15.5039L0.533203 8.94141C0 8.44922 0 7.58789 0.533203 7.0957L7.0957 0.533203C7.58789 0 8.44922 0 8.94141 0.533203C9.47461 1.02539 9.47461 1.88672 8.94141 2.37891L4.63477 6.68555H17.2266C17.9238 6.68555 18.498 7.30078 18.498 7.99805Z" fill="#5A5A5A"/>
</svg>
